<?xml version="1.0" encoding="UTF-8"?>
<!DOCTYPE svg PUBLIC "-//W3C//DTD SVG 1.1//EN" "http://www.w3.org/Graphics/SVG/1.1/DTD/svg11.dtd">
<!-- Creator: CorelDRAW -->
<svg xmlns="http://www.w3.org/2000/svg" xml:space="preserve" width="131.759mm" height="67.3175mm" version="1.1" style="shape-rendering:geometricPrecision; text-rendering:geometricPrecision; image-rendering:optimizeQuality; fill-rule:evenodd; clip-rule:evenodd"
viewBox="0 0 9019.96 4608.43"
 xmlns:xlink="http://www.w3.org/1999/xlink"
 xmlns:xodm="http://www.corel.com/coreldraw/odm/2003">
 <defs>
  <style type="text/css">
   <![CDATA[
    .fil0 {fill:#82A579}
    .fil1 {fill:#82B1B4}
    .fil2 {fill:#DD8A41}
    .fil3 {fill:#373435;fill-rule:nonzero}
   ]]>
  </style>
 </defs>
 <g id="Camada_x0020_1">
  <metadata id="CorelCorpID_0Corel-Layer"/>
  <path class="fil0" d="M141.72 2069.64c-101.09,165.25 -111.85,500.05 -141.72,713.96 482.25,66.6 1194.83,67.49 1692.68,65.67 278.49,-1.02 943.85,38.31 979.16,-329.84 12.11,-126.23 14.56,-316.8 -13.57,-419.15 -127.09,-70.85 -1094.89,-81.45 -1234.02,-84.16 -358.17,-7.01 -953.36,-27.14 -1282.54,53.52z"/>
  <path class="fil1" d="M784.23 1790.59c300.26,24.87 1830.78,199.14 1990.01,-94.85 77.79,-143.63 134.99,-484.81 61.78,-675.33 -50.71,-132.04 -291.97,-63.3 -634.64,-51.09 -341.74,12.17 -1131.2,-5 -1327.89,167.07 -104.07,91.04 -155.03,474.15 -89.26,654.2z"/>
  <path class="fil2" d="M2754.31 750.83c37.8,-114.52 42.18,-252.33 43.07,-376.23 0.55,-76.76 -1.44,-220.94 -37.33,-289.09 -38.77,-73.67 -19.24,-37.38 -61.72,-74.6l-1164.58 -10.91c-33.15,133.66 -55.94,338.03 -73.6,471.57 -29.79,225.31 -1.44,333.75 229.99,338.68 299.31,6.37 754.84,-36.37 1064.18,-59.41z"/>
  <path class="fil3" d="M4567.91 1957.62c-255.25,0 -451.18,-76.2 -587.8,-228.59 -136.62,-152.39 -204.93,-370.78 -204.93,-655.14 0,-190.1 30.68,-350.75 92.04,-481.93 61.36,-131.19 151.35,-231.34 269.96,-300.46 118.62,-69.13 262.19,-103.69 430.73,-103.69 170.17,0 313.74,34.56 430.73,103.69 116.98,69.12 206.16,169.28 267.51,300.46 61.36,131.19 92.04,291.83 92.04,481.93 0,284.36 -68.31,502.74 -204.93,655.14 -136.62,152.39 -331.73,228.59 -585.34,228.59zm0 -190.89c183.26,0 321.92,-58.52 416,-175.57 94.08,-117.04 141.12,-289.47 141.12,-517.27 0,-229.38 -47.04,-402.59 -141.12,-519.64 -94.08,-117.04 -232.74,-175.57 -416,-175.57 -184.89,0 -324.38,58.52 -418.45,175.57 -94.08,117.05 -141.13,290.26 -141.13,519.64 0,227.8 47.04,400.23 141.13,517.27 94.08,117.05 233.57,175.57 418.45,175.57z"/>
  <polygon id="_1" class="fil3" points="5684.62,1929.34 5684.62,216.08 5900.59,216.08 6928.93,1679.53 6850.39,1710.17 6850.39,216.08 7076.18,216.08 7076.18,1929.34 6860.21,1929.34 5824.5,454.1 5910.41,421.11 5910.41,1929.34 "/>
  <path id="_2" class="fil3" d="M7473.78 1929.34l0 -1713.26 1099.51 0 0 188.53 -1020.97 0 149.71 -129.61 0 1593.07 -142.35 -127.26 1038.16 0 0 188.53 -1124.06 0zm58.89 -775.32l0 -188.53 969.44 0 0 188.53 -969.44 0z"/>
  <path class="fil3" d="M4192.39 3454.17c-103.56,0 -183.06,-32.96 -238.49,-98.89 -55.44,-65.93 -83.16,-160.4 -83.16,-283.43 0,-82.24 12.45,-151.74 37.34,-208.49 24.9,-56.75 61.41,-100.09 109.54,-129.99 48.13,-29.91 106.38,-44.86 174.76,-44.86 69.04,0 127.29,14.95 174.76,44.86 47.46,29.9 83.64,73.24 108.54,129.99 24.9,56.75 37.34,126.25 37.34,208.49 0,123.03 -27.72,217.51 -83.15,283.43 -55.44,65.93 -134.6,98.89 -237.5,98.89zm0 -82.58c74.35,0 130.61,-25.32 168.79,-75.95 38.17,-50.64 57.25,-125.23 57.25,-223.79 0,-99.23 -19.08,-174.16 -57.25,-224.8 -38.18,-50.64 -94.44,-75.95 -168.79,-75.95 -75.02,0 -131.61,25.32 -169.78,75.95 -38.18,50.64 -57.27,125.57 -57.27,224.8 0,98.56 19.09,173.15 57.27,223.79 38.17,50.64 94.76,75.95 169.78,75.95z"/>
  <path id="_1_0" class="fil3" d="M4639.49 3441.93l0 -532.19 60.74 0 22.9 128.46 -17.92 0c15.94,-42.14 37.51,-74.26 64.73,-96.35 27.22,-22.08 58.42,-33.13 93.6,-33.13 7.3,0 13.77,0.17 19.41,0.51 5.65,0.34 10.8,1.18 15.44,2.55l0 80.54 -22.91 0c-37.84,0 -69.37,10.88 -94.6,32.63 -25.23,21.75 -42.49,53.36 -51.78,94.81l0 322.17 -89.62 0z"/>
  <path id="_2_1" class="fil3" d="M5124.44 3453.15c-52.45,0 -94.44,-15.12 -125.98,-45.37 -31.53,-30.24 -47.3,-70.52 -47.3,-120.82 0,-37.39 8.46,-69.16 25.39,-95.33 16.94,-26.16 41.33,-46.22 73.2,-60.15 31.87,-13.94 70.04,-20.9 114.52,-20.9l149.37 0 0 67.29 -140.41 0c-45.14,0 -78.5,8.32 -100.08,24.98 -21.58,16.65 -32.36,42.31 -32.36,76.97 0,30.58 8.46,54.88 25.38,72.89 16.93,18.01 40,27.01 69.21,27.01 21.24,0 41.66,-4.59 61.24,-13.76 19.59,-9.17 37.51,-22.09 53.77,-38.74 16.26,-16.66 29.38,-36.19 39.33,-58.63l-4.98 37.73 0 -157.01 -0.99 -10.19 0 -62.19c0,-38.06 -8.13,-64.91 -24.4,-80.54 -16.27,-15.64 -43.98,-23.45 -83.15,-23.45 -25.23,0 -52.11,2.89 -80.66,8.66 -28.55,5.78 -60.74,15.13 -96.59,28.04l0 -74.43c25.23,-11.56 54.1,-20.56 86.63,-27.01 32.53,-6.46 63.06,-9.69 91.62,-9.69 65.72,0 114.85,14.62 147.38,43.84 32.52,29.22 48.79,74.09 48.79,134.58l0 364.99 -60.74 0 -18.92 -109.09 14.94 5.09c-20.58,37.39 -46.64,65.93 -78.17,85.64 -31.53,19.72 -66.88,29.57 -106.04,29.57z"/>
  <path id="_3" class="fil3" d="M5727.88 3453.15c-80.32,0 -140.9,-23.96 -181.73,-71.87 -40.83,-47.92 -61.24,-118.44 -61.24,-211.56 0,-57.77 9.63,-106.71 28.88,-146.81 19.25,-40.1 47.46,-70.85 84.64,-92.27 37.17,-21.41 81.98,-32.11 134.43,-32.11 49.13,0 94.6,11.21 136.42,33.65l0 75.44c-21.91,-11.56 -42.99,-20.05 -63.23,-25.49 -20.25,-5.44 -40,-8.15 -59.25,-8.15 -57.09,0 -99.74,16.48 -127.96,49.44 -28.22,32.97 -42.33,81.73 -42.33,146.3 0,70.69 13.12,123.03 39.34,157.01 26.23,33.98 67.55,50.98 123.98,50.98 22.57,0 45.47,-3.06 68.7,-9.18 23.23,-6.11 48.46,-15.63 75.69,-28.55l0 75.45c-19.92,12.23 -43.32,21.58 -70.21,28.03 -26.88,6.46 -55.59,9.69 -86.13,9.69z"/>
  <polygon id="_4" class="fil3" points="5993.76,3441.93 5993.76,2747.64 5941.98,2713.99 5941.98,2676.27 6083.38,2676.27 6083.38,3441.93 "/>
  <path id="_5" class="fil3" d="M6449.83 3453.15c-82.32,0 -144.56,-23.96 -186.71,-71.87 -42.16,-47.92 -63.23,-118.1 -63.23,-210.54 0,-89.04 20.08,-156.67 60.25,-202.88 40.16,-46.22 97.75,-69.33 172.77,-69.33 73.02,0 127.46,20.39 163.31,61.17 35.84,40.78 53.77,102.29 53.77,184.53l0 59.13 -402.3 0 0 -72.39 359.48 0 -43.81 35.69 0 -35.69c0,-55.73 -10.12,-95.83 -30.37,-120.3 -20.24,-24.47 -53.6,-36.7 -100.07,-36.7 -47.13,0 -82.82,15.29 -107.05,45.87 -24.23,30.59 -36.35,75.11 -36.35,133.56l0 17.33c0,71.37 13.62,123.37 40.83,155.99 27.22,32.63 70.04,48.94 128.46,48.94 29.88,0 58.09,-3.06 84.64,-9.18 26.55,-6.11 53.77,-15.63 81.66,-28.55l0 77.49c-18.59,11.56 -43.32,20.73 -74.19,27.53 -30.87,6.8 -64.56,10.19 -101.07,10.19z"/>
  <polygon id="_6" class="fil3" points="7013.44,3441.93 7013.44,2700.74 7101.07,2700.74 7518.3,3333.87 7486.44,3347.12 7486.44,2700.74 7578.05,2700.74 7578.05,3441.93 7490.42,3441.93 7070.2,2803.71 7105.05,2789.44 7105.05,3441.93 "/>
  <path id="_7" class="fil3" d="M7950.48 3453.15c-82.32,0 -144.56,-23.96 -186.71,-71.87 -42.16,-47.92 -63.23,-118.1 -63.23,-210.54 0,-89.04 20.08,-156.67 60.24,-202.88 40.16,-46.22 97.75,-69.33 172.77,-69.33 73.02,0 127.46,20.39 163.31,61.17 35.85,40.78 53.77,102.29 53.77,184.53l0 59.13 -402.3 0 0 -72.39 359.48 0 -43.81 35.69 0 -35.69c0,-55.73 -10.12,-95.83 -30.37,-120.3 -20.25,-24.47 -53.61,-36.7 -100.08,-36.7 -47.13,0 -82.81,15.29 -107.05,45.87 -24.23,30.59 -36.35,75.11 -36.35,133.56l0 17.33c0,71.37 13.62,123.37 40.83,155.99 27.23,32.63 70.04,48.94 128.46,48.94 29.88,0 58.09,-3.06 84.64,-9.18 26.55,-6.11 53.77,-15.63 81.66,-28.55l0 77.49c-18.59,11.56 -43.32,20.73 -74.19,27.53 -30.87,6.8 -64.56,10.19 -101.07,10.19z"/>
  <polygon id="_8" class="fil3" points="8201.41,3441.93 8409.54,3139.14 8409.54,3195.21 8211.37,2909.74 8313.94,2909.74 8465.3,3137.1 8431.44,3137.1 8586.79,2909.74 8678.4,2909.74 8481.24,3193.17 8481.24,3141.18 8688.36,3441.93 8585.79,3441.93 8424.48,3198.26 8457.33,3198.26 8293.02,3441.93 "/>
  <path id="_9" class="fil3" d="M8961.2 3447.03c-51.12,0 -88.78,-13.6 -113.02,-40.78 -24.23,-27.19 -36.34,-69.33 -36.34,-126.42l0 -294.64 -89.62 0 0 -46.9 89.62 -30.59 35.85 -144.77 53.77 0 0 146.81 112.52 0 0 75.45 -112.52 0 0 293.62c0,29.9 6.3,51.99 18.91,66.27 12.62,14.27 30.87,21.41 54.77,21.41 7.97,0 15.77,-0.51 23.4,-1.53 7.64,-1.02 14.77,-1.87 21.41,-2.55l0 79.52c-9.3,2.04 -18.76,3.4 -28.38,4.08 -9.63,0.68 -19.76,1.02 -30.38,1.02z"/>
  <path class="fil3" d="M3890.95 4597.56l0 -718.43 446.87 0 0 79.06 -414.96 0 60.85 -54.35 0 668.03 -57.85 -53.36 421.94 0 0 79.06 -456.85 0zm23.94 -325.12l0 -79.06 394 0 0 79.06 -394 0z"/>
  <path id="_1_2" class="fil3" d="M4653.03 4608.43c-68.5,0 -122.2,-23.72 -161.1,-71.15 -38.89,-47.43 -58.35,-112.99 -58.35,-196.66 0,-84.98 19.46,-151.19 58.35,-198.62 38.9,-47.43 93.27,-71.16 163.09,-71.16 31.92,0 63.17,6.76 93.77,20.26 30.59,13.5 57.19,32.44 79.79,56.82l0 81.03c-20.61,-28.33 -44.22,-49.74 -70.82,-64.23 -26.6,-14.49 -55.53,-21.74 -86.78,-21.74 -46.55,0 -82.46,16.8 -107.73,50.4 -25.27,33.6 -37.91,82.35 -37.91,146.25 0,62.58 12.31,111.01 36.91,145.27 24.61,34.26 59.52,51.38 104.74,51.38 24.6,0 47.54,-5.11 68.82,-15.31 21.28,-10.21 40.08,-24.71 56.36,-43.48 16.29,-18.77 28.42,-40.35 36.41,-64.73l-12.96 50.4 0 -269.78 0 -39.53 0 -298.44 89.77 0 0 742.14 -60.85 0 -19.95 -110.68 16.96 8.89c-19.28,34.91 -45.72,62.42 -79.3,82.51 -33.59,20.09 -69.99,30.14 -109.23,30.14z"/>
  <path id="_2_3" class="fil3" d="M5231.58 4608.43c-57.85,0 -102.57,-17.79 -134.16,-53.36 -31.59,-35.58 -47.37,-86.96 -47.37,-154.16l0 -319.19 89.77 0 0 316.23c0,44.14 9.65,78.07 28.93,101.78 19.28,23.72 47.54,35.58 84.78,35.58 31.26,0 60.69,-10.71 88.28,-32.12 27.6,-21.41 48.38,-49.9 62.34,-85.48l0 -335.99 89.77 0 0 515.85 -60.84 0 -20.96 -115.62 37.91 -38.54c-17.29,51.38 -45.72,91.74 -85.29,121.05 -39.57,29.32 -83.96,43.98 -133.17,43.98z"/>
  <path id="_3_4" class="fil3" d="M5854.02 4608.43c-80.47,0 -141.15,-23.22 -182.05,-69.67 -40.89,-46.44 -61.34,-114.8 -61.34,-205.05 0,-56 9.64,-103.43 28.92,-142.3 19.29,-38.87 47.55,-68.68 84.79,-89.43 37.23,-20.75 82.12,-31.13 134.66,-31.13 49.21,0 94.77,10.87 136.66,32.61l0 73.13c-21.95,-11.2 -43.07,-19.44 -63.34,-24.71 -20.28,-5.27 -40.07,-7.91 -59.35,-7.91 -57.19,0 -99.91,15.98 -128.17,47.93 -28.27,31.95 -42.4,79.22 -42.4,141.8 0,68.51 13.14,119.24 39.4,152.18 26.27,32.94 67.66,49.41 124.19,49.41 22.61,0 45.55,-2.96 68.83,-8.89 23.28,-5.93 48.54,-15.16 75.81,-27.67l0 73.13c-19.95,11.86 -43.39,20.91 -70.33,27.18 -26.92,6.26 -55.69,9.39 -86.28,9.39z"/>
  <path id="_4_5" class="fil3" d="M6257.01 4608.43c-52.53,0 -94.6,-14.66 -126.18,-43.98 -31.59,-29.31 -47.39,-68.35 -47.39,-117.1 0,-36.23 8.48,-67.03 25.44,-92.39 16.96,-25.36 41.4,-44.8 73.31,-58.31 31.92,-13.51 70.16,-20.26 114.72,-20.26l149.63 0 0 65.22 -140.65 0c-45.22,0 -78.64,8.07 -100.26,24.21 -21.61,16.14 -32.41,41.01 -32.41,74.61 0,29.65 8.48,53.2 25.44,70.66 16.96,17.46 40.06,26.19 69.32,26.19 21.28,0 41.73,-4.45 61.35,-13.34 19.61,-8.89 37.57,-21.41 53.86,-37.56 16.29,-16.14 29.43,-35.08 39.4,-56.82l-4.98 36.56 0 -152.18 -1 -9.89 0 -60.28c0,-36.89 -8.15,-62.91 -24.44,-78.07 -16.29,-15.15 -44.05,-22.73 -83.29,-22.73 -25.27,0 -52.2,2.8 -80.8,8.4 -28.59,5.6 -60.85,14.66 -96.76,27.18l0 -72.14c25.27,-11.2 54.2,-19.93 86.78,-26.19 32.59,-6.26 63.17,-9.39 91.77,-9.39 65.84,0 115.05,14.16 147.63,42.5 32.59,28.33 48.88,71.81 48.88,130.44l0 353.78 -60.85 0 -18.96 -105.74 14.96 4.94c-20.62,36.23 -46.72,63.91 -78.3,83.01 -31.59,19.1 -67,28.66 -106.23,28.66z"/>
  <path id="_5_6" class="fil3" d="M6817.6 4602.51c-51.21,0 -88.94,-13.18 -113.22,-39.53 -24.27,-26.36 -36.41,-67.2 -36.41,-122.54l0 -285.59 -89.77 0 0 -45.46 89.77 -29.64 35.91 -140.33 53.86 0 0 142.3 112.72 0 0 73.13 -112.72 0 0 284.61c0,28.99 6.32,50.4 18.96,64.23 12.63,13.83 30.92,20.75 54.86,20.75 7.98,0 15.79,-0.49 23.44,-1.49 7.65,-0.99 14.8,-1.81 21.45,-2.46l0 77.08c-9.31,1.98 -18.79,3.29 -28.43,3.95 -9.64,0.66 -19.78,0.99 -30.42,0.99z"/>
  <path id="_6_7" class="fil3" d="M7006.12 4597.56l0 -446.67 -51.86 -32.61 0 -36.56 141.64 0 0 515.85 -89.78 0zm-20.94 -635.42l0 -80.05 109.72 0 0 80.05 -109.72 0z"/>
  <path id="_7_8" class="fil3" d="M7459.98 4608.43c-78.47,0 -139.31,-23.89 -182.54,-71.65 -43.23,-47.76 -64.84,-113.48 -64.84,-197.15 0,-84.33 21.61,-150.2 64.84,-197.64 43.22,-47.43 104.07,-71.16 182.54,-71.16 79.14,0 140.32,23.72 183.54,71.16 43.22,47.43 64.84,113.31 64.84,197.64 0,83.67 -21.61,149.38 -64.84,197.15 -43.22,47.76 -104.41,71.65 -183.54,71.65zm0 -73.13c51.21,0 90.11,-16.64 116.71,-49.91 26.6,-33.27 39.9,-81.86 39.9,-145.76 0,-63.91 -13.29,-112.49 -39.9,-145.76 -26.6,-33.27 -65.5,-49.91 -116.71,-49.91 -50.54,0 -89.11,16.64 -115.71,49.91 -26.6,33.27 -39.9,81.86 -39.9,145.76 0,63.91 13.3,112.49 39.9,145.76 26.6,33.27 65.17,49.91 115.71,49.91z"/>
  <path id="_8_9" class="fil3" d="M7825.07 4597.56l0 -515.85 60.85 0 20.94 115.62 -19.95 -3.95c21.28,-38.87 49.38,-69.01 84.29,-90.42 34.91,-21.41 74.64,-32.12 119.2,-32.12 59.85,0 105.73,17.79 137.66,53.36 31.92,35.58 47.88,86.96 47.88,154.16l0 319.19 -89.78 0 0 -316.23c0,-44.8 -9.81,-78.4 -29.43,-100.8 -19.61,-22.4 -49.04,-33.6 -88.28,-33.6 -33.24,0 -63.67,10.05 -91.27,30.14 -27.6,20.09 -48.38,47.27 -62.34,81.53l0 338.96 -89.78 0z"/>
 </g>
</svg>
