<?xml version="1.0" standalone="no"?>
<!DOCTYPE svg PUBLIC "-//W3C//DTD SVG 20010904//EN"
 "http://www.w3.org/TR/2001/REC-SVG-20010904/DTD/svg10.dtd">
<svg version="1.0" xmlns="http://www.w3.org/2000/svg"
 width="308.000000pt" height="164.000000pt" viewBox="0 0 308.000000 164.000000"
 preserveAspectRatio="xMidYMid meet">

<g transform="translate(0.000000,164.000000) scale(0.100000,-0.100000)"
fill="#000000" stroke="none">
<path d="M1466 1546 c-56 -21 -87 -46 -118 -97 -59 -96 -60 -277 -2 -376 85
-145 336 -150 431 -10 76 113 66 333 -20 425 -58 62 -203 91 -291 58z m192
-93 c54 -40 67 -78 67 -193 0 -87 -3 -111 -20 -140 -23 -40 -93 -80 -140 -80
-17 0 -51 10 -75 23 -56 28 -81 76 -88 167 -8 117 27 207 92 236 43 20 130 13
164 -13z"/>
<path d="M1930 1260 l0 -290 50 0 50 0 2 207 3 206 140 -206 139 -207 43 0 43
0 0 290 0 290 -45 0 -45 0 0 -205 c0 -113 -3 -205 -7 -204 -5 0 -68 92 -142
205 l-134 204 -49 0 -48 0 0 -290z"/>
<path d="M2530 1260 l0 -290 185 0 185 0 0 40 0 39 -137 3 -138 3 -3 83 -3 82
126 0 125 0 0 43 0 42 -122 0 -123 0 -3 83 -3 82 136 0 135 0 0 40 0 40 -180
0 -180 0 0 -290z"/>
<path d="M1413 703 c-12 -2 -34 -18 -48 -34 -46 -56 -27 -177 31 -199 72 -28
138 10 149 85 15 98 -45 166 -132 148z m86 -49 c42 -54 18 -156 -39 -169 -64
-14 -111 57 -90 137 12 43 31 57 77 58 22 0 38 -8 52 -26z"/>
<path d="M2040 588 c3 -84 9 -123 18 -126 9 -3 12 26 12 122 0 113 -2 126 -17
126 -16 0 -18 -11 -13 -122z"/>
<path d="M2382 583 c2 -80 7 -118 15 -120 9 -3 13 22 15 93 l3 98 64 -97 c35
-53 70 -97 77 -97 11 0 14 25 14 120 0 99 -3 120 -15 120 -11 0 -15 -19 -17
-91 l-3 -92 -63 92 c-35 50 -70 91 -78 91 -12 0 -14 -19 -12 -117z"/>
<path d="M2986 655 c-4 -14 -13 -25 -21 -25 -8 0 -15 -4 -15 -10 0 -5 7 -10
15 -10 12 0 15 -13 15 -59 0 -41 5 -65 16 -75 20 -20 54 -21 54 -1 0 8 -3 14
-7 14 -28 -5 -33 4 -33 60 0 52 3 60 23 66 l22 8 -22 4 c-16 3 -23 11 -23 29
0 31 -16 31 -24 -1z"/>
<path d="M1728 633 c-34 -9 -18 -24 17 -17 37 7 65 -7 65 -32 0 -9 -12 -14
-33 -14 -46 0 -77 -25 -77 -60 0 -45 61 -68 94 -35 13 14 16 13 25 -2 8 -13
10 3 11 65 0 79 -1 83 -26 92 -26 10 -46 11 -76 3z m82 -101 c0 -24 -34 -55
-56 -50 -9 1 -22 10 -27 20 -16 24 8 48 49 48 26 0 34 -4 34 -18z"/>
<path d="M1906 619 c-22 -17 -26 -28 -26 -70 0 -63 25 -92 77 -87 20 2 38 8
40 15 3 8 -6 10 -30 6 -28 -4 -37 -1 -51 18 -37 54 -3 127 55 115 30 -6 40 8
13 18 -28 11 -51 6 -78 -15z"/>
<path d="M2152 630 c-47 -19 -53 -124 -9 -155 22 -16 64 -20 91 -9 29 11 16
23 -19 17 -26 -4 -41 -1 -55 12 -36 33 -25 45 40 45 58 0 60 1 60 25 0 30 -41
75 -67 74 -10 0 -28 -4 -41 -9z m66 -22 c7 -7 12 -20 12 -30 0 -15 -8 -18 -45
-18 -49 0 -56 11 -28 42 19 21 44 23 61 6z"/>
<path d="M2652 630 c-47 -19 -54 -117 -11 -152 21 -18 64 -23 93 -12 29 11 16
23 -19 17 -26 -4 -41 -1 -55 12 -36 33 -25 45 40 45 58 0 60 1 60 25 0 30 -41
75 -67 74 -10 0 -28 -4 -41 -9z m66 -22 c7 -7 12 -20 12 -30 0 -15 -8 -18 -45
-18 -49 0 -59 15 -29 44 18 19 45 21 62 4z"/>
<path d="M1590 545 c0 -69 3 -85 15 -85 12 0 15 13 15 59 0 61 15 91 46 91 8
0 14 5 14 10 0 14 -33 12 -49 -2 -11 -10 -14 -10 -18 0 -13 35 -23 3 -23 -73z"/>
<path d="M2796 618 c4 -7 17 -25 27 -40 l20 -27 -25 -33 c-37 -49 -41 -58 -26
-58 7 0 24 17 37 37 l23 36 33 -39 c41 -48 56 -39 21 13 -32 46 -32 48 0 90
19 25 21 33 10 33 -8 0 -23 -13 -33 -30 -9 -16 -20 -30 -23 -30 -3 0 -14 14
-23 30 -10 17 -25 30 -33 30 -9 0 -12 -5 -8 -12z"/>
<path d="M1350 200 l0 -120 75 0 c43 0 75 4 75 10 0 6 -28 10 -65 10 l-65 0 0
45 0 45 55 0 c30 0 55 5 55 10 0 6 -25 10 -55 10 l-55 0 0 40 0 40 60 0 c47 0
60 3 60 15 0 12 -14 15 -70 15 l-70 0 0 -120z"/>
<path d="M1650 281 l0 -39 -39 5 c-31 4 -43 1 -60 -16 -26 -26 -29 -96 -5
-129 17 -24 61 -30 95 -12 13 7 19 7 19 0 0 -5 5 -10 10 -10 6 0 10 47 10 120
0 100 -2 120 -15 120 -11 0 -15 -11 -15 -39z m-16 -57 c19 -7 22 -94 4 -112
-36 -36 -97 12 -83 65 12 49 36 63 79 47z"/>
<path d="M2380 305 c0 -8 7 -15 15 -15 8 0 15 7 15 15 0 8 -7 15 -15 15 -8 0
-15 -7 -15 -15z"/>
<path d="M2280 286 c0 -9 -9 -25 -20 -36 -16 -16 -17 -20 -5 -20 12 0 15 -14
15 -63 0 -68 10 -87 47 -87 28 0 30 16 3 23 -17 4 -20 14 -20 66 0 48 3 61 15
61 8 0 15 5 15 10 0 6 -7 10 -15 10 -8 0 -15 9 -15 19 0 11 -4 23 -10 26 -5 3
-10 -1 -10 -9z"/>
<path d="M1730 187 c0 -78 17 -107 64 -107 17 0 38 6 45 12 11 11 14 11 18 1
13 -36 23 -4 23 72 0 69 -3 85 -15 85 -12 0 -15 -13 -15 -58 0 -71 -15 -95
-55 -90 -30 3 -30 3 -33 76 -2 55 -6 72 -17 72 -12 0 -15 -14 -15 -63z"/>
<path d="M1942 227 c-26 -28 -30 -92 -6 -125 12 -18 25 -22 65 -22 33 0 49 4
49 13 0 9 -12 11 -38 9 -46 -5 -64 13 -64 63 0 48 18 68 59 63 22 -3 33 0 33
9 0 24 -74 16 -98 -10z"/>
<path d="M2097 243 c-15 -14 -5 -18 34 -15 28 3 44 0 50 -9 18 -29 9 -39 -34
-39 -49 0 -67 -13 -67 -50 0 -14 5 -31 12 -38 16 -16 70 -16 86 0 9 9 12 9 12
0 0 -7 5 -12 10 -12 15 0 13 143 -2 158 -13 13 -90 17 -101 5z m88 -83 c11
-17 -6 -51 -28 -59 -28 -11 -57 4 -57 30 0 29 70 53 85 29z"/>
<path d="M2368 238 c7 -7 12 -42 12 -85 0 -58 3 -73 15 -73 12 0 15 16 15 85
l0 85 -27 0 c-21 0 -24 -3 -15 -12z"/>
<path d="M2471 224 c-23 -30 -27 -74 -10 -107 16 -31 28 -37 72 -37 50 0 77
28 77 79 0 56 -31 91 -80 91 -30 0 -43 -6 -59 -26z m100 -10 c7 -9 13 -31 13
-49 0 -18 -6 -40 -13 -49 -16 -19 -62 -21 -79 -4 -15 15 -16 72 -2 99 13 24
62 26 81 3z"/>
<path d="M2650 165 c0 -69 3 -85 15 -85 12 0 15 13 15 58 0 66 21 96 62 90 21
-3 23 -8 26 -75 2 -56 6 -73 17 -73 24 0 21 132 -3 153 -23 21 -61 22 -90 1
-20 -14 -22 -14 -22 0 0 9 -4 16 -10 16 -6 0 -10 -35 -10 -85z"/>
</g>
</svg>
